# xmcd
#
# Track frame offsets:
#	150
#	15619
#	41094
#	63634
#	99771
#	180089
#	221419
#
# Disc length: 3557 seconds
#
# Revision: 1
# Processed by: cddbd v1.5.2PL0 Copyright (c) Steve Scherf et al.
# Submitted via: audiograbber 1.83.01
#
DISCID=500de307
DTITLE=Grateful Dead - 74-05-25 Campus Stadium, University of California, Santa
DTITLE=Barbara CA
DYEAR=1900
DGENRE=
TTITLE0=Promised Land
TTITLE1=Ship Of Fools
TTITLE2=Big River
TTITLE3=Tennessee Jed
TTITLE4=Truckin'
TTITLE5=Let It Grow
TTITLE6=Wharf Rat
EXTD=
EXTT0=
EXTT1=
EXTT2=
EXTT3=
EXTT4=
EXTT5=
EXTT6=
PLAYORDER=
